<svg width="1080" height="1080" viewBox="0 0 1080 1080" fill="none" xmlns="http://www.w3.org/2000/svg">
<path fill-rule="evenodd" clip-rule="evenodd" d="M816.591 152.984C823.026 146.549 832.705 144.623 841.113 148.106C849.519 151.589 855 159.792 855 168.892V319.58L977.431 503.184L1052.05 484.551C1058.76 482.876 1065.89 484.384 1071.34 488.638C1076.8 492.902 1080 499.464 1080 506.392V686.393C1080 693.321 1076.8 699.883 1071.34 704.146C1065.89 708.401 1058.76 709.909 1052.05 708.233L975.542 689.073L855 829.698V911.393C855 919.683 850.438 927.293 843.134 931.212C835.818 935.128 826.923 934.716 820.019 930.114L690.688 843.893H522.289L324.139 931.959C316.456 935.374 307.501 934.223 300.936 928.971C294.375 923.72 291.297 915.239 292.938 906.998L313.944 802.057L205.179 584.571L155.433 501.646L108.016 564.884C104.103 570.102 98.0866 573.386 91.5804 573.848C85.079 574.306 78.6991 571.909 74.0902 567.301L6.59009 499.8C-2.19678 491.014 -2.19678 476.771 6.59009 467.984C15.377 459.197 29.6198 459.197 38.4065 467.984L87.5814 517.115L139.481 447.901C143.973 441.912 151.165 438.556 158.641 438.936C165.183 439.274 171.223 442.421 175.209 447.505L176.791 449.835L220.56 522.74L316.493 273.306C319.837 264.62 328.191 258.892 337.499 258.892H710.683L816.591 152.984ZM813.779 338.872C811.315 335.176 810 330.834 810 326.392V223.208L735.908 297.3C731.688 301.52 725.967 303.892 719.999 303.892H352.968L249.608 572.706L357.626 788.829C359.861 793.299 360.536 798.386 359.559 803.287L345.585 873.16L508.359 800.826C511.235 799.548 514.351 798.893 517.499 798.893H697.499C700.827 798.893 704.094 799.64 707.079 801.046L709.98 802.672L810 869.337V821.393C810 816.026 811.915 810.835 815.405 806.759L950.405 649.259C955.255 643.6 962.548 640.765 969.829 641.524L972.949 642.052L1035 657.564V535.22L972.949 550.733C963.727 553.034 954.052 549.282 948.779 541.373L813.779 338.872ZM855 461.392V506.392C855 518.819 844.926 528.892 832.5 528.892C820.073 528.892 810 518.819 810 506.392V461.392C810 448.966 820.073 438.892 832.5 438.892C844.926 438.892 855 448.966 855 461.392Z" fill="#C42363"/>
<path fill-rule="evenodd" clip-rule="evenodd" d="M810 326.392C810 330.834 811.315 335.176 813.779 338.872L948.779 541.373C954.052 549.282 963.727 553.034 972.949 550.733L1035 535.22V657.564L972.949 642.052L969.829 641.524C962.548 640.765 955.255 643.6 950.405 649.259L815.405 806.759C811.915 810.835 810 816.026 810 821.393V869.337L709.98 802.672L707.079 801.046C704.094 799.64 700.827 798.893 697.499 798.893H517.499C514.351 798.893 511.235 799.548 508.359 800.826L345.585 873.16L359.559 803.287C360.536 798.386 359.861 793.299 357.626 788.829L249.608 572.706L352.968 303.892H719.999C725.967 303.892 731.688 301.52 735.908 297.3L810 223.208V326.392ZM855 461.392V506.392C855 518.819 844.926 528.892 832.5 528.892C820.073 528.892 810 518.819 810 506.392V461.392C810 448.966 820.073 438.892 832.5 438.892C844.926 438.892 855 448.966 855 461.392Z" fill="#E84A86"/>
</svg>
