<svg width="805" height="190" viewBox="0 0 805 190" fill="none" xmlns="http://www.w3.org/2000/svg">
<path d="M202.814 0.413104C200.787 -0.426635 198.453 0.0376648 196.901 1.5893L171.364 27.1265H81.3798C79.1355 27.1265 77.121 28.5077 76.3148 30.6021L53.1829 90.747L42.6289 73.1677L42.2475 72.6061C41.2864 71.3802 39.83 70.6212 38.2526 70.5398C36.45 70.4481 34.7157 71.2574 33.6326 72.7015L21.1183 89.3907L9.26102 77.544C7.14229 75.4253 3.70798 75.4253 1.58923 77.544C-0.52948 79.6627 -0.52948 83.097 1.58923 85.2158L17.8652 101.492C18.9766 102.603 20.515 103.181 22.0826 103.071C23.6514 102.959 25.102 102.167 26.0456 100.909L37.4791 85.6608L49.4742 105.656L75.7002 158.097L70.6351 183.402C70.2393 185.389 70.9816 187.434 72.5637 188.7C74.1467 189.966 76.306 190.244 78.1585 189.42L125.938 168.185H166.543L197.728 188.975C199.393 190.085 201.537 190.184 203.302 189.24C205.063 188.295 206.163 186.46 206.163 184.461V164.763L235.228 130.854L253.677 135.474C255.295 135.878 257.013 135.515 258.328 134.489C259.645 133.461 260.416 131.879 260.416 130.208V86.8052C260.416 85.1346 259.645 83.5524 258.328 82.5243C257.013 81.4984 255.295 81.1349 253.677 81.5388L235.684 86.0317L206.163 41.7601V5.42518C206.163 3.23109 204.841 1.25301 202.814 0.413104ZM195.312 43.4025C195.312 44.4736 195.629 45.5207 196.223 46.4119L228.775 95.2399C230.047 97.1469 232.38 98.0517 234.603 97.4969L249.565 93.7564V123.257L234.603 119.516L233.851 119.389C232.095 119.206 230.337 119.889 229.167 121.254L196.615 159.231C195.774 160.214 195.312 161.466 195.312 162.76V174.321L171.195 158.246L170.495 157.854C169.775 157.515 168.987 157.335 168.185 157.335H124.783C124.023 157.335 123.272 157.492 122.578 157.801L83.3296 175.242L86.6992 158.394C86.9346 157.212 86.7719 155.986 86.233 154.908L60.1871 102.795L85.1097 37.9772H173.611C175.049 37.9772 176.429 37.4052 177.446 36.3877L195.312 18.5223V43.4025ZM206.163 86.8052V75.9545C206.163 72.9582 203.734 70.5292 200.737 70.5292C197.741 70.5292 195.312 72.9582 195.312 75.9545V86.8052C195.312 89.8015 197.741 92.2305 200.737 92.2305C203.734 92.2305 206.163 89.8015 206.163 86.8052ZM112.766 48.8279C109.772 48.8303 107.341 51.2584 107.341 54.2532C107.341 57.248 109.772 59.6761 112.766 59.6785H156.169C159.165 59.6785 161.594 57.2495 161.594 54.2532C161.594 51.2569 159.165 48.8279 156.169 48.8279H112.766Z" fill="#C42363"/>
<path fill-rule="evenodd" clip-rule="evenodd" d="M195.312 43.4025C195.312 44.4736 195.629 45.5207 196.223 46.4119L228.775 95.2399C230.047 97.1469 232.38 98.0517 234.603 97.4969L249.565 93.7564V123.257L234.603 119.516L233.851 119.389C232.095 119.206 230.337 119.889 229.167 121.254L196.615 159.231C195.774 160.214 195.312 161.466 195.312 162.76V174.321L171.195 158.246L170.495 157.854C169.775 157.515 168.987 157.335 168.185 157.335H124.783C124.023 157.335 123.272 157.492 122.578 157.801L83.3296 175.242L86.6992 158.394C86.9346 157.212 86.7719 155.986 86.233 154.908L60.1871 102.795L85.1097 37.9772H173.611C175.049 37.9772 176.429 37.4052 177.446 36.3877L195.312 18.5223V43.4025ZM206.163 75.9545V86.8052C206.163 89.8015 203.734 92.2305 200.737 92.2305C197.741 92.2305 195.312 89.8015 195.312 86.8052V75.9545C195.312 72.9582 197.741 70.5292 200.737 70.5292C203.734 70.5292 206.163 72.9582 206.163 75.9545ZM107.341 54.2532C107.341 51.2584 109.772 48.8303 112.766 48.8279H156.169C159.165 48.8279 161.594 51.2569 161.594 54.2532C161.594 57.2495 159.165 59.6785 156.169 59.6785H112.766C109.772 59.6761 107.341 57.248 107.341 54.2532Z" fill="#E84A86"/>
<path d="M347.497 156.946H312.416V32.7302H326.406C330.151 32.7302 335.803 32.5889 343.364 32.3062C350.924 31.9529 357.142 31.7763 362.017 31.7763C375.725 31.7763 386.111 35.4152 393.177 42.6929C400.243 49.9706 403.776 60.8872 403.776 75.4426C403.776 84.2042 402.61 92.1885 400.278 99.3955C398.017 106.532 394.944 112.397 391.058 116.989C387.171 121.582 382.755 125.115 377.809 127.588C372.863 130.061 367.635 131.297 362.123 131.297C361.417 131.297 360.675 131.297 359.898 131.297C359.191 131.297 358.52 131.297 357.884 131.297C357.319 131.227 356.612 131.191 355.764 131.191C354.987 131.121 354.351 131.085 353.856 131.085C353.432 131.015 352.796 130.979 351.949 130.979C351.171 130.909 350.641 130.873 350.359 130.873C350.076 130.873 349.546 130.838 348.769 130.767C347.992 130.697 347.568 130.661 347.497 130.661V156.946ZM369.012 70.7792C369.012 65.5506 367.599 61.3111 364.773 58.0609C361.947 54.8106 357.884 53.1855 352.584 53.1855H347.497V108.298H351.419C357.001 108.298 361.311 106.426 364.349 102.681C367.458 98.9363 369.012 93.531 369.012 86.4652V70.7792Z" fill="black"/>
<path d="M412.096 156.946V32.7302H448.237V156.946H412.096Z" fill="black"/>
<path d="M538.375 145.712C529.402 154.685 518.732 159.172 506.367 159.172C497.606 159.172 490.01 157.653 483.58 154.614C477.221 151.576 472.169 147.195 468.424 141.472C464.679 135.749 461.924 129.213 460.157 121.865C458.461 114.516 457.614 106.143 457.614 96.7459C457.614 89.7508 457.967 83.4623 458.673 77.8803C459.451 72.2984 460.687 66.9637 462.383 61.8764C464.079 56.7891 466.41 52.4083 469.378 48.7341C472.346 44.9892 475.985 41.739 480.295 38.9834C484.605 36.2277 489.833 34.1786 495.981 32.8362C502.128 31.423 509.123 30.7164 516.966 30.7164C520.499 30.7164 523.855 30.9284 527.035 31.3523C530.285 31.7763 533.04 32.3062 535.302 32.9421C537.563 33.5074 539.682 34.2493 541.661 35.1679C543.71 36.0157 545.3 36.793 546.43 37.4996C547.631 38.1355 548.726 38.842 549.716 39.6193C550.705 40.3965 551.305 40.9264 551.517 41.2091C551.8 41.4917 552.012 41.7037 552.153 41.845L550.564 66.2218H531.274L525.233 52.1257C523.678 51.2778 521.17 50.8538 517.708 50.8538C514.882 50.8538 512.55 51.1011 510.713 51.5957C508.876 52.0903 507.039 53.1502 505.201 54.7753C503.435 56.3298 502.022 58.6261 500.962 61.6644C499.973 64.632 499.16 68.6948 498.524 73.8529C497.888 78.9402 497.57 85.1581 497.57 92.5064C497.57 107.839 498.383 119.215 500.008 126.634C501.704 134.053 505.06 137.763 510.077 137.763C512.55 137.763 514.634 137.551 516.33 137.127C518.026 136.632 519.616 135.784 521.099 134.583C522.583 133.311 523.678 131.474 524.385 129.072C525.092 126.599 525.445 123.454 525.445 119.639V108.828L511.455 105.649V84.0275H558.619L558.513 156.946H539.647L538.375 145.712Z" fill="black"/>
<path d="M612.447 136.173C617.464 136.173 621.138 134.76 623.47 131.933C625.801 129.107 626.967 125.751 626.967 121.865V114.446C626.967 109.853 625.483 106.603 622.516 104.695C619.548 102.716 616.192 101.727 612.447 101.727H604.18V136.173H612.447ZM625.483 64.5261C625.483 60.2866 624.318 57.3543 621.986 55.7292C619.654 54.0334 616.298 53.1855 611.917 53.1855H604.18V83.8156H612.765C616.863 83.8156 620.007 82.2258 622.198 79.0462C624.388 75.7959 625.483 71.8391 625.483 67.1757V64.5261ZM619.654 157.9C614.143 157.9 607.007 157.759 598.245 157.476C589.483 157.193 583.195 157.017 579.379 156.946H569.205V32.7302H587.54C591.992 32.7302 597.079 32.5889 602.802 32.3062C608.526 31.9529 612.659 31.7763 615.203 31.7763C623.47 31.7763 630.429 32.4475 636.082 33.79C641.805 35.1325 646.292 37.1463 649.542 39.8312C652.793 42.5162 655.089 45.6252 656.431 49.158C657.845 52.6909 658.551 56.895 658.551 61.7704C658.551 69.2601 656.82 75.6899 653.358 81.0599C649.896 86.4299 644.879 89.7861 638.308 91.1286C654.983 92.6124 663.321 102.398 663.321 120.487C663.321 125.927 662.508 130.873 660.883 135.325C659.258 139.706 656.749 143.627 653.358 147.089C650.037 150.481 645.515 153.131 639.792 155.038C634.068 156.946 627.356 157.9 619.654 157.9Z" fill="black"/>
<path d="M673.542 156.946V32.7302H709.684V156.946H673.542Z" fill="black"/>
<path d="M743.861 156.946V60.8165H719.06V32.7302H804.485V60.8165H779.684V156.946H743.861Z" fill="black"/>
</svg>
